<?xml version="1.0" encoding="utf-8"?>
<!-- Generator: Adobe Illustrator 16.0.0, SVG Export Plug-In . SVG Version: 6.00 Build 0)  -->
<!DOCTYPE svg PUBLIC "-//W3C//DTD SVG 1.1//EN" "http://www.w3.org/Graphics/SVG/1.1/DTD/svg11.dtd">
<svg version="1.1" id="Layer_1" xmlns="http://www.w3.org/2000/svg" xmlns:xlink="http://www.w3.org/1999/xlink" x="0px" y="0px"
	 width="323.933px" height="40.469px" viewBox="0 0 323.933 40.469" enable-background="new 0 0 323.933 40.469"
	 xml:space="preserve">
<path fill-rule="evenodd" clip-rule="evenodd" d="M23.84,6.104L0.001,6.103v4.778H23.84l-0.001,29.002h4.932l0-39.299h-4.932
	L23.84,6.104z M0,39.883h3.943l0-6.742h5.84l0.001,5.865h3.943v-5.865h3.645l0,6.742h3.943l0.001-10.687H0L0,39.883z M0.001,17.921
	h9.782l0.001,4.267H0l0.001,3.941h21.313v-3.942l-7.586,0.001l0-4.267h7.587l0.001-3.943H0.001L0.001,17.921z M51.388,19.302
	c2.865-0.725,4.63-3.313,4.677-6.418l0.013-4.417c0-5.542-4.323-7.883-7.9-7.884H34.87l-0.001,39.301l14.982,0.001
	c4.188,0,6.599-4.118,6.626-7.699l0.001-6.271C56.478,22.618,54.495,19.877,51.388,19.302z M41.956,7.857l4.373,0.001
	c1.211,0,2.193,0.934,2.193,2.086l-0.017,4.363c-0.084,1.076-1.021,1.93-2.178,1.93h-4.372L41.956,7.857z M48.655,30.639
	l-0.018,0.001c-0.084,1.078-0.784,2.289-2.261,2.288h-4.42v-9.813h3.782c2.079,0,2.917,0.747,2.917,2.564L48.655,30.639z
	 M81.238,12.667l-0.001-4.416c0-5.543-4.224-7.668-7.803-7.668l-14.051,0l0,39.3h7.799V23.167l3.049,0.001
	c2.079,0,3.279,0.748,3.279,2.564v14.153h7.728l-0.001-14.372c-0.02-5.285-4.163-6.238-4.59-6.238
	C79.255,19.275,81.192,15.771,81.238,12.667z M73.549,14.336c-0.085,1.077-1.403,1.945-2.558,1.945H67.18l0-8.741h4.175
	c1.683,0,2.195,0.947,2.194,2.086L73.549,14.336z M261.879,12.667V8.251c0-5.543-4.225-7.668-7.804-7.668l-14.416,0v39.3h8.163
	V23.167l3.049,0.001c2.078,0,3.279,0.748,3.279,2.564v14.153h7.728V25.513c-0.021-5.285-4.164-6.238-4.59-6.238
	C259.898,19.275,261.834,15.771,261.879,12.667z M254.191,14.336c-0.085,1.077-1.403,1.945-2.558,1.945h-3.811l0.001-8.741h4.175
	c1.683,0,2.194,0.947,2.194,2.086L254.191,14.336z M160.311,0.583h-8.93l-6.67,17.466V0.583h-8.773v39.302l8.774,0.001l0.001-18.736
	l7.389,18.735l9.17,0.001l-8.113-20.319L160.311,0.583z M171.74,0.583h-9.109l0,39.303l18.293-0.001l0.001-7.704h-9.185V0.583z
	 M314.748,32.181l0.002-31.598h-9.11l-0.001,39.303l18.294-0.001l0.001-7.704H314.748z M189.808,16.881l-4.406-16.298h-8.805
	l8.806,24.913l-0.001,14.389h8.808l0.001-14.388l8.809-24.914h-8.808L189.808,16.881z M220.252,24.794l-7.52-24.211h-8.907
	l-0.001,39.302h7.473l0.001-24.047l7.618,24.047h9.469l0.001-39.302h-8.133L220.252,24.794z M270.646,0.583l-6.878,39.302h8.411
	l1.186-9.46h7.06l1.056,9.46h8.711l-7.385-39.302H270.646z M274.224,22.599l1.735-14.645h1.937l1.736,14.645H274.224z
	 M292.509,0.583l0.012,39.309l8.747-0.004l-0.014-39.305H292.509z M99.19,0h-7.575c-4.111,0-7.449,3.787-7.449,8.263l-0.001,23.88
	c0,4.277,3.337,8.325,7.449,8.325l7.575,0.001c4.114-0.001,7.449-4.049,7.45-8.326V8.262C106.64,3.987,103.304,0,99.19,0z
	 M98.871,31.32c0,1.16-0.57,2.183-2.009,2.183l-2.234,0.003c-1.53-0.003-2.009-0.883-2.008-2.187V9.525
	c0-1.222,0.553-2.187,2.009-2.188l2.233,0.001c1.844,0,2.01,1.183,2.009,2.188L98.871,31.32z M124.749,0h-7.575
	c-4.112,0-7.45,3.788-7.45,8.262v23.881c0,4.277,3.336,8.325,7.45,8.326l7.575-0.001c4.113,0,7.449-4.047,7.449-8.324V8.263
	C132.197,3.987,128.861,0,124.749,0z M123.701,31.32c0,1.161-0.571,2.186-2.01,2.185l-2.233,0.001
	c-1.529-0.001-2.009-0.883-2.007-2.187l-0.001-21.793c0-1.223,0.554-2.187,2.01-2.188h2.233c1.843,0.001,2.01,1.184,2.009,2.189
	V31.32z"/>
</svg>
